<svg width="20" height="21" viewBox="0 0 20 21" fill="none" xmlns="http://www.w3.org/2000/svg">
<path d="M13.3799 9.47638C13.5197 9.47638 13.6164 9.6162 13.567 9.74702L11.3168 15.707C11.2874 15.7849 11.2129 15.8364 11.1297 15.8364H10.3019C10.2189 15.8364 10.1445 15.7851 10.115 15.7075L8.51371 11.5003C8.44847 11.3289 8.20616 11.3284 8.14018 11.4995L6.51737 15.7083C6.48762 15.7855 6.41346 15.8364 6.33076 15.8364H5.50303C5.41945 15.8364 5.34468 15.7844 5.31556 15.7061L3.10024 9.74607C3.05167 9.61541 3.14831 9.47638 3.28771 9.47638H3.95208C4.0361 9.47638 4.11116 9.5289 4.13997 9.60782L5.7557 14.0354C5.81923 14.2094 6.06489 14.211 6.13059 14.0377L7.81105 9.60548C7.84052 9.52778 7.91496 9.47638 7.99806 9.47638H8.69279C8.77646 9.47638 8.85129 9.52847 8.88034 9.60694L10.529 14.0595C10.5934 14.2334 10.8393 14.2336 10.904 14.0599L12.5635 9.60655C12.5927 9.52828 12.6674 9.47638 12.7509 9.47638L13.3799 9.47638Z" fill="#21045C"/>
<path d="M12.8562 8.80112L13.794 9.14828L11.7277 14.5767L10.7182 14.5767L12.8562 8.80112Z" fill="url(#paint0_linear_57_594)"/>
<path d="M14.0415 5.90734C14.0724 5.82907 14.1832 5.82907 14.214 5.90734L14.4408 6.48237C14.4502 6.50627 14.4692 6.52518 14.4931 6.53461L15.0681 6.7614C15.1464 6.79227 15.1464 6.90304 15.0681 6.93391L14.4931 7.1607C14.4692 7.17013 14.4502 7.18904 14.4408 7.21294L14.214 7.78798C14.1832 7.86625 14.0724 7.86625 14.0415 7.78798L13.8147 7.21294C13.8053 7.18904 13.7864 7.17013 13.7625 7.1607L13.1875 6.93391C13.1092 6.90304 13.1092 6.79227 13.1875 6.7614L13.7625 6.53461C13.7864 6.52518 13.8053 6.50627 13.8147 6.48237L14.0415 5.90734Z" fill="#580AF5"/>
<path d="M10.2284 7.17565C10.2592 7.09738 10.37 7.09738 10.4009 7.17565L10.6277 7.75068C10.6371 7.77458 10.656 7.7935 10.6799 7.80292L11.2549 8.02971C11.3332 8.06058 11.3332 8.17135 11.2549 8.20222L10.6799 8.42901C10.656 8.43844 10.6371 8.45735 10.6277 8.48125L10.4009 9.05629C10.37 9.13456 10.2592 9.13456 10.2284 9.05629L10.0016 8.48125C9.99215 8.45735 9.97323 8.43844 9.94934 8.42901L9.3743 8.20222C9.29603 8.17135 9.29603 8.06058 9.3743 8.02971L9.94934 7.80292C9.97323 7.7935 9.99215 7.77458 10.0016 7.75068L10.2284 7.17565Z" fill="#A67FF5"/>
<path d="M15.8565 9.17369C15.8874 9.09542 15.9982 9.09542 16.0291 9.17369L16.2558 9.74873C16.2653 9.77263 16.2842 9.79154 16.3081 9.80097L16.8831 10.0278C16.9614 10.0586 16.9614 10.1694 16.8831 10.2003L16.3081 10.4271C16.2842 10.4365 16.2653 10.4554 16.2558 10.4793L16.0291 11.0543C15.9982 11.1326 15.8874 11.1326 15.8565 11.0543L15.6297 10.4793C15.6203 10.4554 15.6014 10.4365 15.5775 10.4271L15.0025 10.2003C14.9242 10.1694 14.9242 10.0586 15.0025 10.0278L15.5775 9.80097C15.6014 9.79154 15.6203 9.77263 15.6297 9.74873L15.8565 9.17369Z" fill="#CEBAF5"/>
<path d="M11.9011 7.37803C11.8682 7.21789 12.0683 7.1173 12.1772 7.23926L13.3502 8.55326C13.3882 8.5958 13.4459 8.61491 13.5018 8.60343L15.2271 8.24874C15.3873 8.21582 15.4878 8.41594 15.3659 8.52482L14.0519 9.69784C14.0093 9.73582 13.9902 9.79357 14.0017 9.84942L14.3564 11.5748C14.3893 11.7349 14.1892 11.8355 14.0803 11.7135L12.9073 10.3995C12.8693 10.357 12.8116 10.3379 12.7557 10.3494L11.0304 10.7041C10.8703 10.737 10.7697 10.5368 10.8916 10.428L12.2056 9.25494C12.2482 9.21697 12.2673 9.15922 12.2558 9.10337L11.9011 7.37803Z" fill="#7F45F5"/>
<defs>
<linearGradient id="paint0_linear_57_594" x1="13.3251" y1="8.9747" x2="11.1871" y2="14.7503" gradientUnits="userSpaceOnUse">
<stop offset="0.278846" stop-color="#7F45F5"/>
<stop offset="1" stop-color="#21045C"/>
</linearGradient>
</defs>
</svg>
