<svg width="600" height="200" viewBox="0 0 600 200" fill="none" xmlns="http://www.w3.org/2000/svg">
<path d="M119.297 137.944C119.615 138.815 120.843 138.822 121.172 137.956L139.173 90.4702C139.321 90.0816 139.693 89.8247 140.108 89.8247H148.439C148.857 89.8247 149.231 90.0851 149.377 90.4775L167.038 138.179C167.36 139.049 168.589 139.05 168.913 138.181L186.695 90.4754C186.841 90.0841 187.214 89.8247 187.632 89.8247H206.996C207.393 89.8247 207.753 90.0603 207.912 90.4248L228.926 138.592C229.276 139.393 230.414 139.391 230.761 138.588L251.55 90.4284C251.708 90.062 252.069 89.8247 252.468 89.8247H261.556C262.279 89.8247 262.763 90.5671 262.471 91.228L232.25 159.786C229.53 166.265 226.33 170.827 222.65 173.467C219.05 176.107 214.685 177.422 209.565 177.422C206.445 177.422 203.403 176.909 200.443 175.87C197.834 174.999 195.619 173.729 193.798 172.07C193.465 171.767 193.401 171.272 193.624 170.881L197.536 164.011C197.857 163.447 198.623 163.335 199.121 163.752C202.177 166.305 205.658 167.588 209.565 167.588C212.365 167.588 214.687 166.823 216.527 165.303C218.447 163.863 220.164 161.344 221.684 157.745L223.536 153.711C223.656 153.45 223.658 153.151 223.542 152.889L197.51 94.0411C197.148 93.2213 195.973 93.2559 195.659 94.0956L173.733 152.778C173.587 153.169 173.214 153.428 172.796 153.428H163.145C162.729 153.428 162.358 153.172 162.21 152.784L145.024 107.626C144.698 106.769 143.487 106.766 143.157 107.622L125.739 152.788C125.59 153.174 125.22 153.428 124.806 153.428H115.152C114.734 153.428 114.36 153.168 114.215 152.777L91.3157 91.1731C91.0729 90.5198 91.5561 89.8247 92.2531 89.8247H101.033C101.453 89.8247 101.828 90.0872 101.972 90.4818L119.297 137.944Z" fill="#21045C"/>
<path d="M291.137 89.229C295.377 89.229 299.621 89.7417 303.861 90.7817C307.703 91.7241 310.922 92.9619 313.515 94.4952C313.964 94.7606 314.11 95.3347 313.862 95.7937L309.893 103.15C309.616 103.663 308.961 103.83 308.46 103.531C303.462 100.552 297.648 99.0632 291.02 99.063C286.14 99.063 282.417 99.8653 279.857 101.465C277.299 103.065 276.02 105.184 276.02 107.823C276.02 109.902 276.738 111.545 278.178 112.745C279.618 113.945 281.381 114.821 283.461 115.381C285.62 115.941 288.618 116.586 292.455 117.305C297.575 118.185 301.698 119.146 304.818 120.186C308.018 121.146 310.743 122.825 312.982 125.225C315.221 127.625 316.341 130.985 316.342 135.303C316.342 141.062 313.858 145.662 308.9 149.102C304.021 152.462 297.34 154.141 288.861 154.141C283.663 154.141 278.66 153.469 273.861 152.11C269.44 150.783 265.898 149.148 263.241 147.211C262.853 146.928 262.744 146.401 262.968 145.976L266.844 138.603C267.126 138.066 267.816 137.903 268.324 138.234C270.934 139.935 274.023 141.315 277.582 142.383C281.581 143.583 285.622 144.19 289.701 144.19C299.778 144.189 304.817 141.306 304.818 135.547C304.818 133.627 304.137 132.107 302.777 130.987C301.418 129.867 299.7 129.065 297.621 128.584C295.621 128.024 292.738 127.428 288.979 126.788C283.86 125.988 279.661 125.064 276.381 124.024C273.181 122.984 270.42 121.221 268.1 118.741C265.781 116.261 264.613 112.78 264.613 108.301C264.615 102.543 267.022 97.9416 271.82 94.5024C276.62 90.9841 283.059 89.2292 291.137 89.229Z" fill="#21045C"/>
<path d="M339.857 95.9481C339.857 96.8966 341.103 97.3509 341.781 96.687C343.852 94.6572 346.329 93.0106 349.213 91.7485C353.133 90.0685 357.499 89.229 362.299 89.229C370.377 89.2297 376.779 91.5898 381.498 96.3091C386.296 100.949 388.695 107.789 388.695 116.827V152.428C388.695 152.98 388.248 153.428 387.695 153.428H378.172C377.62 153.428 377.172 152.98 377.172 152.428V118.145C377.172 111.987 375.696 107.349 372.738 104.229C369.778 101.109 365.534 99.5415 360.014 99.5415C353.774 99.5418 348.858 101.389 345.258 105.069C341.658 108.669 339.858 113.865 339.857 120.665V152.428C339.857 152.98 339.41 153.428 338.857 153.428H329.334C328.782 153.428 328.334 152.98 328.334 152.428V65.3852C328.334 64.8329 328.782 64.3852 329.334 64.3852H338.857C339.41 64.3852 339.857 64.8329 339.857 65.3852V95.9481Z" fill="#21045C"/>
<path d="M465.478 133.023C465.318 132.66 464.959 132.426 464.562 132.426H421.227C420.831 132.426 420.472 132.66 420.312 133.023L411.598 152.828C411.438 153.191 411.079 153.426 410.682 153.426H400.526C399.799 153.426 399.315 152.675 399.615 152.013L436.749 70.013C436.911 69.6553 437.267 69.4255 437.66 69.4255H448.251C448.643 69.4255 448.999 69.6548 449.161 70.0119L486.413 152.012C486.714 152.674 486.229 153.426 485.502 153.426H475.107C474.711 153.426 474.352 153.191 474.192 152.828L465.478 133.023ZM459.482 122.826C460.204 122.826 460.688 122.084 460.397 121.423L443.81 83.7445C443.46 82.9484 442.33 82.9484 441.98 83.7445L425.393 121.423C425.102 122.084 425.586 122.826 426.308 122.826H459.482Z" fill="#A67FF5"/>
<path d="M497.186 70.4255C497.186 69.8732 497.633 69.4255 498.186 69.4255H508.186C508.738 69.4255 509.186 69.8732 509.186 70.4255V152.426C509.186 152.978 508.738 153.426 508.186 153.426H498.186C497.633 153.426 497.186 152.978 497.186 152.426V70.4255Z" fill="#A67FF5"/>
<path d="M264.799 58.9399L275.018 63.223L238.735 144.884L230.014 140.427L264.799 58.9399Z" fill="url(#paint0_linear_47_34)"/>
<path d="M279.128 27.1094C279.436 26.3267 280.544 26.3267 280.853 27.1094L283.121 32.8598C283.215 33.0987 283.404 33.2879 283.643 33.3821L289.393 35.65C290.176 35.9587 290.176 37.0665 289.393 37.3752L283.643 39.6431C283.404 39.7373 283.215 39.9265 283.121 40.1654L280.853 45.9158C280.544 46.6985 279.436 46.6985 279.128 45.9158L276.86 40.1654C276.766 39.9265 276.576 39.7373 276.337 39.6431L270.587 37.3752C269.804 37.0665 269.804 35.9587 270.587 35.65L276.337 33.3821C276.576 33.2879 276.766 33.0987 276.86 32.8598L279.128 27.1094Z" fill="#580AF5"/>
<path d="M241.347 39.0781C241.655 38.2954 242.763 38.2954 243.072 39.0781L245.34 44.8285C245.434 45.0674 245.623 45.2566 245.862 45.3508L251.612 47.6187C252.395 47.9274 252.395 49.0352 251.612 49.3439L245.862 51.6118C245.623 51.706 245.434 51.8952 245.34 52.1341L243.072 57.8845C242.763 58.6672 241.655 58.6672 241.347 57.8845L239.079 52.1341C238.984 51.8952 238.795 51.706 238.556 51.6118L232.806 49.3439C232.023 49.0352 232.023 47.9274 232.806 47.6187L238.556 45.3508C238.795 45.2566 238.984 45.0674 239.079 44.8285L241.347 39.0781Z" fill="#A67FF5"/>
<path d="M297.628 59.0586C297.937 58.2758 299.045 58.2758 299.353 59.0586L301.621 64.8089C301.716 65.0479 301.905 65.237 302.144 65.3313L307.894 67.5992C308.677 67.9079 308.677 69.0156 307.894 69.3243L302.144 71.5922C301.905 71.6865 301.716 71.8756 301.621 72.1146L299.353 77.865C299.045 78.6477 297.937 78.6477 297.628 77.865L295.36 72.1146C295.266 71.8756 295.077 71.6865 294.838 71.5922L289.088 69.3243C288.305 69.0156 288.305 67.9079 289.088 67.5992L294.838 65.3313C295.077 65.237 295.266 65.0479 295.36 64.8089L297.628 59.0586Z" fill="#CEBAF5"/>
<path d="M257.916 40.4186C257.677 38.8014 259.731 37.9082 260.75 39.1865L271.732 52.9582C272.087 53.404 272.653 53.627 273.217 53.5434L290.641 50.9609C292.258 50.7212 293.152 52.7753 291.873 53.7946L278.102 64.7764C277.656 65.1319 277.433 65.6978 277.516 66.2619L280.099 83.6857C280.339 85.303 278.285 86.1961 277.265 84.9178L266.283 71.1462C265.928 70.7003 265.362 70.4774 264.798 70.561L247.374 73.1434C245.757 73.3831 244.864 71.329 246.142 70.3097L259.914 59.328C260.36 58.9725 260.582 58.4065 260.499 57.8424L257.916 40.4186Z" fill="#7F45F5"/>
<defs>
<linearGradient id="paint0_linear_47_34" x1="270.085" y1="60.4653" x2="234.314" y2="142.734" gradientUnits="userSpaceOnUse">
<stop offset="0.163462" stop-color="#7F45F5"/>
<stop offset="1" stop-color="#21045C"/>
</linearGradient>
</defs>
</svg>
