<svg width="44" height="16" viewBox="0 0 44 16" fill="none" xmlns="http://www.w3.org/2000/svg">
<path d="M3.92996 11.7944C3.96173 11.8815 4.08456 11.8822 4.1174 11.7956L5.91758 7.047C5.93231 7.00815 5.96953 6.98245 6.01108 6.98245H6.84412C6.88595 6.98245 6.92337 7.0085 6.9379 7.04773L8.70405 11.8179C8.73624 11.9048 8.85915 11.905 8.89153 11.8181L10.6697 7.04753C10.6843 7.0084 10.7217 6.98245 10.7634 6.98245H12.6998C12.7396 6.98245 12.7756 7.00602 12.7915 7.04246L14.8929 11.8591C14.9279 11.9393 15.0417 11.9391 15.0763 11.8588L17.1552 7.04282C17.1711 7.00618 17.2071 6.98245 17.2471 6.98245H18.1559C18.2281 6.98245 18.2765 7.05669 18.2474 7.12279L15.2253 13.9785C14.9533 14.6265 14.6332 15.0827 14.2653 15.3467C13.9053 15.6107 13.4687 15.7422 12.9567 15.7422C12.6448 15.7422 12.3405 15.6909 12.0446 15.5869C11.7836 15.4999 11.5621 15.3729 11.38 15.207C11.3467 15.1766 11.3403 15.1272 11.3626 15.0881L11.7538 14.4011C11.786 14.3447 11.8625 14.3335 11.9124 14.3751C12.218 14.6305 12.566 14.7588 12.9567 14.7588C13.2367 14.7588 13.469 14.6823 13.653 14.5303C13.8449 14.3863 14.0166 14.1343 14.1686 13.7744L14.3539 13.3711C14.3659 13.345 14.3661 13.3151 14.3545 13.2889L11.7513 7.40409C11.715 7.32212 11.5975 7.32558 11.5661 7.40955L9.37356 13.2778C9.35895 13.3169 9.32161 13.3428 9.27988 13.3428H8.3147C8.27319 13.3428 8.236 13.3172 8.22124 13.2784L6.50266 8.76255C6.47005 8.67684 6.3489 8.67657 6.3159 8.76214L4.57416 13.2788C4.55928 13.3174 4.5222 13.3428 4.48085 13.3428H3.51547C3.47368 13.3428 3.43629 13.3168 3.42173 13.2776L1.13182 7.11729C1.10753 7.05196 1.15585 6.98245 1.22555 6.98245H2.10354C2.14555 6.98245 2.18307 7.0087 2.19748 7.04816L3.92996 11.7944Z" fill="#E8E1F5"/>
<path d="M21.1139 6.92288C21.5379 6.92288 21.9624 6.97416 22.3864 7.07816C22.7705 7.17239 23.0924 7.29617 23.3518 7.44951C23.3967 7.47605 23.4112 7.53346 23.3865 7.57935L22.9895 8.31496C22.9618 8.36629 22.8963 8.38298 22.8462 8.35311C22.3465 8.05523 21.765 7.9063 21.1022 7.90628C20.6142 7.90628 20.242 7.98652 19.986 8.14651C19.7301 8.30646 19.6023 8.5184 19.6022 8.78226C19.6022 8.99023 19.6741 9.15445 19.818 9.27444C19.962 9.39444 20.1383 9.48212 20.3463 9.53812C20.5623 9.59409 20.862 9.65854 21.2458 9.7305C21.7578 9.8185 22.1701 9.91459 22.4821 10.0186C22.8021 10.1146 23.0745 10.2825 23.2985 10.5225C23.5223 10.7624 23.6344 11.0985 23.6344 11.5303C23.6344 12.1062 23.3861 12.5662 22.8903 12.9102C22.4024 13.2461 21.7342 13.414 20.8864 13.4141C20.3665 13.4141 19.8663 13.3469 19.3864 13.211C18.9443 13.0783 18.5901 12.9148 18.3244 12.7211C18.2855 12.6927 18.2746 12.6401 18.297 12.5976L18.6846 11.8603C18.7128 11.8066 18.7818 11.7903 18.8326 11.8234C19.0936 11.9934 19.4025 12.1315 19.7585 12.2383C20.1584 12.3583 20.5625 12.419 20.9704 12.419C21.9781 12.4189 22.482 12.1305 22.4821 11.5547C22.4821 11.3627 22.414 11.2107 22.278 11.0987C22.142 10.9867 21.9702 10.9064 21.7624 10.8584C21.5624 10.8024 21.2741 10.7427 20.8981 10.6787C20.3862 10.5988 19.9663 10.5063 19.6383 10.4024C19.3183 10.2984 19.0422 10.1221 18.8102 9.87405C18.5783 9.62607 18.4616 9.278 18.4616 8.83011C18.4617 8.25431 18.7024 7.79414 19.1823 7.45023C19.6622 7.09839 20.3062 6.9229 21.1139 6.92288Z" fill="#E8E1F5"/>
<path d="M25.986 7.59479C25.986 7.68964 26.1106 7.73507 26.1783 7.66868C26.3855 7.4657 26.6331 7.30105 26.9215 7.17484C27.3135 7.00683 27.7501 6.92288 28.2301 6.92288C29.038 6.92295 29.6781 7.15896 30.1501 7.63089C30.6298 8.09488 30.8698 8.77885 30.8698 9.68265V13.2428C30.8698 13.298 30.825 13.3428 30.7698 13.3428H29.8174C29.7622 13.3428 29.7174 13.298 29.7174 13.2428V9.81448C29.7174 9.19873 29.5699 8.73487 29.2741 8.42288C28.9781 8.11088 28.5536 7.95413 28.0016 7.95413C27.3777 7.95416 26.886 8.1389 26.526 8.50687C26.1661 8.86685 25.986 9.38651 25.986 10.0664V13.2428C25.986 13.298 25.9412 13.3428 25.886 13.3428H24.9336C24.8784 13.3428 24.8336 13.298 24.8336 13.2428V4.53851C24.8336 4.48328 24.8784 4.43851 24.9336 4.43851H25.886C25.9412 4.43851 25.986 4.48328 25.986 4.53851V7.59479Z" fill="#E8E1F5"/>
<path d="M38.548 11.3023C38.532 11.266 38.4961 11.2425 38.4565 11.2425H34.123C34.0833 11.2425 34.0474 11.266 34.0315 11.3023L33.16 13.2828C33.144 13.3191 33.1081 13.3425 33.0685 13.3425H32.0528C31.9801 13.3425 31.9317 13.2675 31.9617 13.2013L35.6751 5.00128C35.6913 4.96551 35.727 4.94254 35.7662 4.94254H36.8253C36.8645 4.94254 36.9002 4.96546 36.9164 5.00117L40.6415 13.2012C40.6716 13.2674 40.6232 13.3425 40.5505 13.3425H39.511C39.4713 13.3425 39.4354 13.3191 39.4195 13.2828L38.548 11.3023ZM37.9485 10.2825C38.0207 10.2825 38.0691 10.2083 38.04 10.1422L36.3813 6.37443C36.3462 6.29482 36.2333 6.29482 36.1982 6.37443L34.5395 10.1422C34.5104 10.2083 34.5588 10.2825 34.631 10.2825H37.9485Z" fill="#A67FF5"/>
<path d="M41.7188 5.04254C41.7188 4.98731 41.7636 4.94254 41.8188 4.94254H42.8188C42.874 4.94254 42.9188 4.98731 42.9188 5.04254V13.2425C42.9188 13.2978 42.874 13.3425 42.8188 13.3425H41.8188C41.7636 13.3425 41.7188 13.2978 41.7188 13.2425V5.04254Z" fill="#A67FF5"/>
<path d="M18.4802 3.89397L19.5021 4.32228L15.8737 12.4884L15.0017 12.0427L18.4802 3.89397Z" fill="url(#paint0_linear_8216_68331)"/>
<path d="M19.913 0.71094C19.9439 0.632669 20.0547 0.632669 20.0855 0.71094L20.3123 1.28598C20.3217 1.30987 20.3407 1.32879 20.3646 1.33821L20.9396 1.565C21.0179 1.59587 21.0179 1.70665 20.9396 1.73752L20.3646 1.96431C20.3407 1.97373 20.3217 1.99265 20.3123 2.01654L20.0855 2.59158C20.0547 2.66985 19.9439 2.66985 19.913 2.59158L19.6862 2.01654C19.6768 1.99265 19.6579 1.97373 19.634 1.96431L19.0589 1.73752C18.9807 1.70665 18.9807 1.59587 19.0589 1.565L19.634 1.33821C19.6579 1.32879 19.6768 1.30987 19.6862 1.28598L19.913 0.71094Z" fill="#CEBAF5"/>
<path d="M16.1349 1.90779C16.1658 1.82952 16.2765 1.82952 16.3074 1.90779L16.5342 2.48283C16.5436 2.50673 16.5625 2.52564 16.5864 2.53507L17.1615 2.76186C17.2398 2.79273 17.2398 2.9035 17.1615 2.93437L16.5864 3.16116C16.5625 3.17059 16.5436 3.1895 16.5342 3.2134L16.3074 3.78843C16.2765 3.86671 16.1658 3.86671 16.1349 3.78843L15.9081 3.2134C15.8987 3.1895 15.8798 3.17059 15.8559 3.16116L15.2808 2.93437C15.2026 2.9035 15.2026 2.79273 15.2808 2.76186L15.8559 2.53507C15.8798 2.52564 15.8987 2.50673 15.9081 2.48283L16.1349 1.90779Z" fill="#A67FF5"/>
<path d="M21.7631 3.90584C21.7939 3.82757 21.9047 3.82757 21.9356 3.90584L22.1624 4.48088C22.1718 4.50477 22.1907 4.52369 22.2146 4.53311L22.7897 4.7599C22.8679 4.79077 22.8679 4.90155 22.7897 4.93242L22.2146 5.15921C22.1907 5.16863 22.1718 5.18755 22.1624 5.21144L21.9356 5.78648C21.9047 5.86475 21.7939 5.86475 21.7631 5.78648L21.5363 5.21144C21.5269 5.18755 21.5079 5.16863 21.4841 5.15921L20.909 4.93242C20.8307 4.90155 20.8307 4.79077 20.909 4.7599L21.4841 4.53311C21.5079 4.52369 21.5269 4.50477 21.5363 4.48088L21.7631 3.90584Z" fill="#7F45F5"/>
<path d="M17.7919 2.04185C17.7679 1.88012 17.9733 1.79081 18.0753 1.91864L19.1734 3.2958C19.209 3.34039 19.2656 3.36268 19.322 3.35432L21.0644 3.09608C21.2261 3.07211 21.3154 3.27751 21.1876 3.37945L19.8104 4.47762C19.7658 4.51317 19.7435 4.56977 19.7519 4.62618L20.0101 6.36856C20.0341 6.53028 19.8287 6.61959 19.7268 6.49177L18.6286 5.1146C18.593 5.07002 18.5364 5.04772 18.48 5.05608L16.7377 5.31433C16.5759 5.3383 16.4866 5.13289 16.6144 5.03096L17.9916 3.93278C18.0362 3.89723 18.0585 3.84064 18.0501 3.78423L17.7919 2.04185Z" fill="#F5F2F0"/>
<defs>
<linearGradient id="paint0_linear_8216_68331" x1="19.0088" y1="4.04651" x2="15.4316" y2="12.2734" gradientUnits="userSpaceOnUse">
<stop offset="0.163462" stop-color="#F5F2F0"/>
<stop offset="1" stop-color="#E8E1F5"/>
</linearGradient>
</defs>
</svg>
