<svg width="150" height="50" viewBox="0 0 150 50" fill="none" xmlns="http://www.w3.org/2000/svg">
<path d="M29.8243 34.4861C29.9037 34.7037 30.2108 34.7056 30.2929 34.489L34.7933 22.6176C34.8302 22.5205 34.9232 22.4562 35.0271 22.4562H37.1097C37.2143 22.4562 37.3078 22.5213 37.3441 22.6194L41.7595 34.5448C41.84 34.7622 42.1473 34.7625 42.2282 34.5454L46.6738 22.6189C46.7102 22.5211 46.8036 22.4562 46.908 22.4562H51.7489C51.8483 22.4562 51.9383 22.5151 51.9781 22.6062L57.2316 34.6479C57.319 34.8484 57.6036 34.8478 57.6902 34.647L62.8875 22.6071C62.927 22.5155 63.0173 22.4562 63.117 22.4562H65.3891C65.5696 22.4562 65.6907 22.6418 65.6178 22.807L58.0625 39.9464C57.3826 41.5662 56.5825 42.7068 55.6626 43.3669C54.7626 44.0269 53.6711 44.3556 52.3911 44.3556C51.6114 44.3555 50.8506 44.2274 50.1109 43.9674C49.4585 43.7499 48.9047 43.4324 48.4494 43.0175C48.3662 42.9417 48.3502 42.8181 48.4059 42.7202L49.3839 41.0028C49.4643 40.8617 49.6557 40.8338 49.7803 40.938C50.5443 41.5763 51.4145 41.897 52.3911 41.8971C53.0911 41.8971 53.6719 41.7058 54.1319 41.3258C54.6117 40.9658 55.041 40.3359 55.4209 39.4362L55.8841 38.4278C55.914 38.3626 55.9146 38.2878 55.8856 38.2223L49.3775 23.5103C49.2869 23.3054 48.9932 23.314 48.9147 23.5239L43.4333 38.1946C43.3968 38.2923 43.3034 38.3571 43.1991 38.3571H40.7861C40.6824 38.3571 40.5894 38.293 40.5525 38.196L36.2561 26.9064C36.1745 26.6922 35.8716 26.6915 35.7891 26.9054L31.4348 38.197C31.3976 38.2935 31.3049 38.3571 31.2015 38.3571H28.7881C28.6836 38.3571 28.5901 38.2921 28.5537 38.1942L22.8289 22.7933C22.7682 22.63 22.889 22.4562 23.0633 22.4562H25.2582C25.3633 22.4562 25.4571 22.5218 25.4931 22.6205L29.8243 34.4861Z" fill="#E8E1F5"/>
<path d="M72.7842 22.3073C73.8442 22.3073 74.9053 22.4355 75.9653 22.6955C76.9257 22.9311 77.7304 23.2405 78.3789 23.6238C78.4911 23.6902 78.5275 23.8337 78.4656 23.9485L77.4732 25.7875C77.404 25.9158 77.2402 25.9575 77.1149 25.8829C75.8656 25.1382 74.412 24.7658 72.7549 24.7658C71.5349 24.7658 70.6044 24.9664 69.9644 25.3664C69.3247 25.7662 69.0051 26.2961 69.0049 26.9557C69.0049 27.4756 69.1846 27.8862 69.5444 28.1862C69.9044 28.4862 70.3452 28.7054 70.8652 28.8454C71.4051 28.9853 72.1544 29.1464 73.1138 29.3263C74.3938 29.5463 75.4246 29.7865 76.2046 30.0465C77.0046 30.2865 77.6856 30.7063 78.2456 31.3063C78.8052 31.9062 79.0854 32.7464 79.0855 33.8258C79.0855 35.2655 78.4646 36.4156 77.2251 37.2755C76.0053 38.1154 74.335 38.5352 72.2153 38.5353C70.9157 38.5353 69.665 38.3673 68.4653 38.0275C67.3601 37.6959 66.4746 37.2871 65.8103 36.8027C65.7132 36.7319 65.686 36.6004 65.7419 36.494L66.7109 34.6508C66.7814 34.5167 66.954 34.4759 67.081 34.5586C67.7335 34.9837 68.5057 35.3289 69.3955 35.5959C70.3953 35.8957 71.4056 36.0475 72.4253 36.0475C74.9445 36.0474 76.2043 35.3264 76.2046 33.8869C76.2046 33.4069 76.0343 33.0267 75.6944 32.7467C75.3545 32.4669 74.925 32.2662 74.4053 32.1461C73.9053 32.0062 73.1845 31.8569 72.2446 31.6969C70.9649 31.497 69.9152 31.2659 69.0952 31.006C68.2952 30.746 67.6049 30.3052 67.0249 29.6852C66.4452 29.0652 66.1533 28.1951 66.1533 27.0753C66.1536 25.6358 66.7554 24.4854 67.9551 23.6256C69.1549 22.7461 70.7648 22.3073 72.7842 22.3073Z" fill="#E8E1F5"/>
<path d="M84.9644 23.9871C84.9644 24.2242 85.2759 24.3378 85.4452 24.1718C85.963 23.6643 86.5822 23.2527 87.3032 22.9372C88.2832 22.5172 89.3747 22.3073 90.5747 22.3073C92.5943 22.3075 94.1947 22.8975 95.3745 24.0773C96.574 25.2373 97.1738 26.9472 97.1738 29.2067V38.1071C97.1738 38.2452 97.0619 38.3571 96.9238 38.3571H94.543C94.4049 38.3571 94.293 38.2452 94.293 38.1071V29.5363C94.293 27.9969 93.924 26.8373 93.1846 26.0573C92.4446 25.2773 91.3834 24.8854 90.0034 24.8854C88.4436 24.8855 87.2144 25.3473 86.3145 26.2672C85.4146 27.1672 84.9644 28.4663 84.9644 30.1662V38.1071C84.9644 38.2452 84.8524 38.3571 84.7144 38.3571H82.3335C82.1954 38.3571 82.0835 38.2452 82.0835 38.1071V16.3463C82.0835 16.2083 82.1954 16.0963 82.3335 16.0963H84.7144C84.8524 16.0963 84.9644 16.2083 84.9644 16.3463V23.9871Z" fill="#E8E1F5"/>
<path d="M116.369 33.2557C116.329 33.165 116.24 33.1064 116.141 33.1064H105.307C105.208 33.1064 105.118 33.165 105.078 33.2557L102.899 38.2071C102.859 38.2978 102.77 38.3564 102.671 38.3564H100.131C99.9497 38.3564 99.8287 38.1688 99.9036 38.0033L109.187 17.5033C109.228 17.4139 109.317 17.3564 109.415 17.3564H112.063C112.161 17.3564 112.25 17.4137 112.29 17.503L121.603 38.003C121.678 38.1685 121.557 38.3564 121.376 38.3564H118.777C118.678 38.3564 118.588 38.2978 118.548 38.2071L116.369 33.2557ZM114.871 30.7064C115.051 30.7064 115.172 30.5209 115.099 30.3557L110.953 20.9362C110.865 20.7371 110.583 20.7371 110.495 20.9362L106.348 30.3557C106.275 30.5209 106.396 30.7064 106.577 30.7064H114.871Z" fill="#A67FF5"/>
<path d="M124.296 17.6064C124.296 17.4683 124.408 17.3564 124.546 17.3564H127.046C127.184 17.3564 127.296 17.4683 127.296 17.6064V38.1064C127.296 38.2445 127.184 38.3564 127.046 38.3564H124.546C124.408 38.3564 124.296 38.2445 124.296 38.1064V17.6064Z" fill="#A67FF5"/>
<path d="M66.1998 14.7349L68.7546 15.8057L59.6837 36.221L57.5036 35.1068L66.1998 14.7349Z" fill="url(#paint0_linear_8209_68247)"/>
<path d="M69.7819 6.77737C69.8591 6.5817 70.136 6.5817 70.2132 6.77737L70.7802 8.21496C70.8037 8.27471 70.851 8.32199 70.9108 8.34556L72.3484 8.91253C72.544 8.98971 72.544 9.26664 72.3484 9.34381L70.9108 9.91079C70.851 9.93435 70.8037 9.98164 70.7802 10.0414L70.2132 11.479C70.136 11.6747 69.8591 11.6747 69.7819 11.479L69.2149 10.0414C69.1914 9.98164 69.1441 9.93435 69.0843 9.91079L67.6468 9.34381C67.4511 9.26664 67.4511 8.98971 67.6468 8.91253L69.0843 8.34556C69.1441 8.32199 69.1914 8.27471 69.2149 8.21496L69.7819 6.77737Z" fill="#CEBAF5"/>
<path d="M60.3367 9.76956C60.4138 9.57388 60.6908 9.57388 60.7679 9.76956L61.3349 11.2072C61.3585 11.2669 61.4058 11.3142 61.4655 11.3377L62.9031 11.9047C63.0988 11.9819 63.0988 12.2588 62.9031 12.336L61.4655 12.903C61.4058 12.9265 61.3585 12.9738 61.3349 13.0336L60.7679 14.4712C60.6908 14.6668 60.4138 14.6668 60.3367 14.4712L59.7697 13.0336C59.7461 12.9738 59.6988 12.9265 59.6391 12.903L58.2015 12.336C58.0058 12.2588 58.0058 11.9819 58.2015 11.9047L59.6391 11.3377C59.6988 11.3142 59.7461 11.2669 59.7697 11.2072L60.3367 9.76956Z" fill="#A67FF5"/>
<path d="M74.4071 14.7647C74.4843 14.569 74.7612 14.569 74.8384 14.7647L75.4054 16.2023C75.4289 16.262 75.4762 16.3093 75.536 16.3329L76.9735 16.8998C77.1692 16.977 77.1692 17.2539 76.9735 17.3311L75.536 17.8981C75.4762 17.9217 75.4289 17.9689 75.4054 18.0287L74.8384 19.4663C74.7612 19.662 74.4843 19.662 74.4071 19.4663L73.8401 18.0287C73.8166 17.9689 73.7693 17.9217 73.7095 17.8981L72.2719 17.3311C72.0763 17.2539 72.0763 16.977 72.2719 16.8998L73.7095 16.3329C73.7693 16.3093 73.8166 16.262 73.8401 16.2023L74.4071 14.7647Z" fill="#7F45F5"/>
<path d="M64.4791 10.1046C64.4192 9.70031 64.9327 9.47702 65.1875 9.79659L67.933 13.2395C68.0219 13.351 68.1633 13.4067 68.3044 13.3858L72.6603 12.7402C73.0646 12.6803 73.2879 13.1938 72.9683 13.4486L69.5254 16.1941C69.414 16.2829 69.3582 16.4244 69.3791 16.5654L70.0247 20.9214C70.0847 21.3257 69.5711 21.549 69.3163 21.2294L66.5709 17.7865C66.482 17.675 66.3405 17.6193 66.1995 17.6402L61.8435 18.2858C61.4392 18.3457 61.216 17.8322 61.5355 17.5774L64.9784 14.832C65.0899 14.7431 65.1456 14.6016 65.1247 14.4606L64.4791 10.1046Z" fill="#F5F2F0"/>
<defs>
<linearGradient id="paint0_linear_8209_68247" x1="67.5214" y1="15.1163" x2="58.5785" y2="35.6836" gradientUnits="userSpaceOnUse">
<stop offset="0.163462" stop-color="#F5F2F0"/>
<stop offset="1" stop-color="#E8E1F5"/>
</linearGradient>
</defs>
</svg>
